<?xml version="1.0" standalone="no"?>
<!DOCTYPE svg PUBLIC "-//W3C//DTD SVG 20010904//EN"
 "http://www.w3.org/TR/2001/REC-SVG-20010904/DTD/svg10.dtd">
<svg version="1.0" xmlns="http://www.w3.org/2000/svg"
 width="260.000000pt" height="260.000000pt" viewBox="0 0 260.000000 260.000000"
 preserveAspectRatio="xMidYMid meet">
<metadata>
Created by potrace 1.14, written by Peter Selinger 2001-2017
</metadata>
<g transform="translate(0.000000,260.000000) scale(0.100000,-0.100000)"
fill="#000000" stroke="none">
<path d="M1164 2525 c-2 -5 -5 -107 -6 -225 l-3 -215 -514 -3 c-366 -1 -518
-5 -528 -14 -10 -8 -13 -39 -11 -132 l3 -121 408 -3 c400 -2 407 -3 407 -22 0
-11 -4 -28 -9 -38 -5 -9 -12 -24 -15 -32 -4 -8 -15 -28 -26 -45 -11 -16 -23
-37 -27 -45 -7 -15 -33 -58 -82 -135 -14 -22 -40 -56 -57 -76 -18 -21 -39 -53
-49 -72 -24 -50 -281 -318 -393 -408 -53 -43 -117 -94 -141 -114 -23 -20 -61
-46 -82 -58 -34 -19 -54 -57 -31 -57 5 0 14 -10 20 -22 7 -13 28 -43 47 -68
19 -25 43 -64 54 -87 13 -28 26 -43 38 -43 50 1 425 355 530 500 18 25 55 74
83 110 88 115 110 147 131 195 7 17 32 62 55 100 48 82 147 287 168 349 21 62
26 -29 24 -450 l-3 -449 -270 -5 -270 -5 0 -125 0 -125 259 -3 c169 -1 264 -6
273 -13 10 -9 13 -69 15 -258 l3 -246 135 0 135 0 3 246 c2 189 5 249 15 258
9 7 107 12 283 13 l269 3 0 125 0 125 -280 5 -280 5 -3 448 c-2 421 4 535 24
452 4 -17 11 -35 15 -41 5 -6 36 -67 70 -135 33 -68 67 -131 74 -139 8 -9 29
-45 47 -80 40 -78 92 -156 153 -230 25 -30 64 -82 86 -115 23 -33 61 -78 85
-100 23 -22 87 -88 141 -146 129 -139 248 -242 271 -235 10 4 29 25 43 47 13
23 51 69 85 104 l60 62 -40 37 c-94 85 -144 125 -186 151 -61 38 -395 376
-420 425 -11 21 -24 42 -30 45 -22 13 -135 177 -163 236 -4 8 -16 28 -27 44
-28 43 -50 94 -50 116 0 18 15 19 399 19 298 0 402 3 407 12 9 14 8 237 -1
246 -4 4 -239 9 -523 12 l-517 5 -5 223 -5 224 -134 1 c-81 1 -135 -2 -137 -8z"/>
</g>
</svg>
