<?xml version="1.0" encoding="UTF-8"?>
<svg width="30px" height="31px" viewBox="0 0 30 31" version="1.1" xmlns="http://www.w3.org/2000/svg" xmlns:xlink="http://www.w3.org/1999/xlink">
    <title>caractere-2</title>
    <g id="UI" stroke="none" stroke-width="1" fill="none" fill-rule="evenodd">
        <g id="compo-japon" transform="translate(-83.000000, -207.000000)" fill="#000000" fill-rule="nonzero">
            <path d="M99.696,237.36 L99.696,231.152 L106.192,231.152 L106.192,227.92 L99.696,227.92 L99.696,216.56 C101.808,222.224 105.456,227.344 110.672,231.92 L112.944,229.04 C107.888,225.36 104.304,221.168 102.192,216.464 L111.824,216.464 L111.824,213.232 L99.696,213.232 L99.696,207.792 L96.304,207.792 L96.304,213.232 L84.144,213.232 L84.144,216.464 L93.776,216.464 C91.472,221.616 87.888,225.872 82.96,229.2 L84.912,232.336 C90.224,228.24 94,222.992 96.304,216.56 L96.304,227.92 L90.064,227.92 L90.064,231.152 L96.304,231.152 L96.304,237.36 L99.696,237.36 Z" id="caractere-2"></path>
        </g>
    </g>
</svg>