<?xml version="1.0" encoding="UTF-8"?>
<svg width="110px" height="140px" viewBox="0 0 110 140" version="1.1" xmlns="http://www.w3.org/2000/svg" xmlns:xlink="http://www.w3.org/1999/xlink">
    <title>arrow</title>
    <g id="UI" stroke="none" stroke-width="1" fill="none" fill-rule="evenodd">
        <g id="compo-japon" transform="translate(-201.000000, -2642.000000)" fill="#000000" fill-rule="nonzero">
            <path d="M260,2642 L260.011207,2642.48442 L260.021805,2642.76618 L260.052606,2643.38589 L260.097257,2644.07829 C260.222912,2645.83747 260.450332,2647.80844 260.804951,2649.93615 C261.817787,2656.01317 263.638884,2662.0835 266.452709,2667.71115 C274.311916,2683.42956 288.227073,2692.81112 310.327774,2692.99718 L311,2693 L311,2701 C286.001857,2701 269.385816,2690.33591 259.999335,2672.65147 L260,2782 L252,2782 L252.000983,2672.65087 C242.710808,2690.15432 226.338434,2700.78055 201.766371,2700.99664 L201,2701 L201,2693 C223.491195,2693 237.608699,2683.58833 245.547291,2667.71115 C248.361116,2662.0835 250.182213,2656.01317 251.195049,2649.93615 C251.549668,2647.80844 251.777088,2645.83747 251.902743,2644.07829 L251.947394,2643.38589 L251.978195,2642.76618 L252,2642 L260,2642 Z" id="arrow"></path>
        </g>
    </g>
</svg>